inDegrees=yes
name=ik_S41_A12_T02
DataType=double
version=3
OpenSimVersion=4.3-2021-08-27-4bc7ad9
endheader
time	pelvis_tilt	pelvis_list	pelvis_rotation	pelvis_tx	pelvis_ty	pelvis_tz	hip_flexion_r	hip_adduction_r	hip_rotation_r	knee_angle_r	knee_angle_r_beta	ankle_angle_r	subtalar_angle_r	mtp_angle_r	hip_flexion_l	hip_adduction_l	hip_rotation_l	knee_angle_l	knee_angle_l_beta	ankle_angle_l	subtalar_angle_l	mtp_angle_l	lumbar_extension	lumbar_bending	lumbar_rotation	arm_flex_r	arm_add_r	arm_rot_r	elbow_flex_r	pro_sup_r	wrist_flex_r	wrist_dev_r	arm_flex_l	arm_add_l	arm_rot_l	elbow_flex_l	pro_sup_l	wrist_flex_l	wrist_dev_l
8.519999999999907	-1.336105316546282	3.544598148277466	9.116047255755122	0	0.9399999999999999	0	29.98805269534956	-9.359194785817122	-8.576189276926991	34.1651860954599	0.5962949869223609	0	0	0	29.98805269534956	-9.359194785817122	-8.576189276926991	34.1651860954599	0.5962949869223609	0	0	0	-1.102193530081942	3.9890645502219	7.953005588700448	7.816132397870492	-12.49882848066094	-7.072510378291271	-7.793388488808696	109.5283280319489	0	0	123.0300760011599	-15.95723146730444	23.89872570162409	65.3480389598177	33.59703281095555	0	0
8.539999999999907	-1.338481862176258	3.55459485060209	9.102299816477744	0	0.9399999999999999	0	29.9908036716303	-9.359582180128728	-8.576745051405199	34.16796142802212	0.5963434256134096	0	0	0	29.9908036716303	-9.359582180128728	-8.576745051405199	34.16796142802212	0.5963434256134096	0	0	0	-1.103357543923566	3.999188206724301	7.959626394431673	7.811778522651579	-12.56750015954192	-7.095582482759355	-7.809282659342371	109.5635980801653	0	0	123.1896717927452	-15.85833531691521	24.05022869230834	65.30076163217474	33.65644417314045	0	0
8.559999999999906	-1.331070542933403	3.582320935198033	9.126093723767513	0	0.9399999999999999	0	29.99216855839586	-9.35977124618991	-8.577017945769601	34.16935760181611	0.5963677934430447	0	0	0	29.99216855839586	-9.35977124618991	-8.577017945769601	34.16935760181611	0.5963677934430447	0	0	0	-1.091854745718407	4.025327348521656	7.964055842366307	7.766709155839518	-12.65596724931028	-7.091822981681843	-7.817269391292814	109.5658759708287	0	0	123.3373706693343	-15.73163536193126	24.19961210733307	65.34024632291836	33.71094291458726	0	0
8.579999999999906	-1.347832011746087	3.567588995183079	9.149577682037025	0	0.9399999999999999	0	29.99649948399708	-9.360385460385357	-8.57789700011328	34.17369676044462	0.5964435260478785	0	0	0	29.99649948399708	-9.360385460385357	-8.57789700011328	34.17369676044462	0.5964435260478785	0	0	0	-1.110131999002379	4.01347218701456	7.951398453671954	7.82066449680265	-12.66157840188274	-7.069168804785079	-7.829946513596566	109.544229117492	0	0	123.5853375932548	-15.59928888621546	24.44944244286122	65.3936198064999	33.79468292395112	0	0
8.599999999999905	-1.347737435665658	3.568911621243149	9.189331538226805	0	0.9399999999999999	0	30.00241776451971	-9.361229408804864	-8.579102638530282	34.17959325666499	0.5965464393212554	0	0	0	30.00241776451971	-9.361229408804864	-8.579102638530282	34.17959325666499	0.5965464393212554	0	0	0	-1.107823522488544	4.014905118287027	7.917456138450985	7.806722913069282	-12.70121524174894	-7.082997507084899	-7.834393772636163	109.5328515561203	0	0	123.9146323460634	-15.45978362949434	25.00845048678732	65.33291767359725	33.73173997844725	0	0
8.619999999999905	-1.348252595140445	3.578275858079322	9.233361545856562	0	0.9399999999999999	0	30.00782698711714	-9.361998771899145	-8.580202929684535	34.18499084702893	0.5966406450447801	0	0	0	30.00782698711714	-9.361998771899145	-8.580202929684535	34.18499084702893	0.5966406450447801	0	0	0	-1.103695933464319	4.024612604977015	7.86587711713626	7.817865914598848	-12.74368799611959	-7.060952577272658	-7.841652125413603	109.5172043645609	0	0	124.0755182113526	-15.42832131734728	25.34879830271626	65.71408071793861	34.33301108433224	0	0
8.639999999999905	-1.346372246457361	3.615671164186673	9.250515488722376	0	0.9399999999999999	0	30.00939061054642	-9.362216440137257	-8.580516675692383	34.18658033260127	0.5966683868014303	0	0	0	30.00939061054642	-9.362216440137257	-8.580516675692383	34.18658033260127	0.5966683868014303	0	0	0	-1.095430514876789	4.061226887097641	7.860515319165231	7.813792918793646	-12.85588934316904	-7.079117689711234	-7.853836422404966	109.5142155312569	0	0	124.1208334747916	-15.40685453195668	25.50717760657962	65.66735727184235	34.28812491412341	0	0
8.659999999999904	-1.34207223978188	3.635924724871446	9.280744850997637	0	0.9399999999999999	0	30.01096927059093	-9.362436890399572	-8.580834102218757	34.18818001090387	0.5966963064547834	0	0	0	30.01096927059093	-9.362436890399572	-8.580834102218757	34.18818001090387	0.5966963064547834	0	0	0	-1.08659944965576	4.08067498422498	7.840189960113395	7.822928504640662	-12.93067822802163	-7.097654116183391	-7.866181603123747	109.5224833427447	0	0	124.2390610440198	-15.40627875299726	25.73047666148612	65.73953038808507	34.41382730148038	0	0
8.679999999999904	-1.348430453239774	3.6467207273657	9.29963624284095	0	0.9399999999999999	0	30.0129553599837	-9.362716160728818	-8.5812352341664	34.19017999488999	0.5967312127603283	0	0	0	30.0129553599837	-9.362716160728818	-8.5812352341664	34.19017999488999	0.5967312127603283	0	0	0	-1.089750290037339	4.092502849011667	7.817947661383502	7.836490688734839	-12.94851175273856	-7.089243294749926	-7.860979411583153	109.5298475312043	0	0	124.3457825074389	-15.40457019109805	25.92240556680872	65.80895208780802	34.54393377059765	0	0
8.699999999999903	-1.35188604205583	3.650153923804015	9.303261900827701	0	0.9399999999999999	0	30.01634790312821	-9.363197500150553	-8.581924401276369	34.19356849780318	0.596790353292877	0	0	0	30.01634790312821	-9.363197500150553	-8.581924401276369	34.19356849780318	0.596790353292877	0	0	0	-1.091091931041022	4.09656782271271	7.794030015261112	7.922683318711692	-12.94665333405781	-7.037448522751213	-7.887387522078696	109.5415291548092	0	0	124.438921449502	-15.41532023909436	26.07893963740376	65.85812418934361	34.67637584840297	0	0
8.719999999999903	-1.342547413620294	3.672463296980685	9.321923790008077	0	0.9399999999999999	0	30.01764386376984	-9.363379266395107	-8.582185746982333	34.19487585859343	0.5968131710431783	0	0	0	30.01764386376984	-9.363379266395107	-8.582185746982333	34.19487585859343	0.5968131710431783	0	0	0	-1.077727310772501	4.117108398976391	7.787091687187018	7.900224817872266	-12.98980449219905	-7.042838151270698	-7.888659939132032	109.5316129674793	0	0	124.4785786933303	-15.44470726317767	26.18150661388387	65.86696346574411	34.68003260732755	0	0
8.739999999999903	-1.348964329052378	3.681139373173637	9.359638175579926	0	0.9399999999999999	0	30.0198361659589	-9.363690102890141	-8.58263093571261	34.19706606240306	0.5968513973109461	0	0	0	30.0198361659589	-9.363690102890141	-8.58263093571261	34.19706606240306	0.5968513973109461	0	0	0	-1.081442868366655	4.126831623080887	7.767726541800752	7.914490675850778	-12.97559004952972	-7.042271943610267	-7.892096630160301	109.5286866577528	0	0	124.5340774383601	-15.53849887311449	26.37294841476152	65.89309931430643	34.87859252836517	0	0
8.759999999999902	-1.357282954801016	3.685046748583438	9.390039771532161	0	0.9399999999999999	0	30.02298371419641	-9.364138023173226	-8.583271648857256	34.20019938853236	0.5969060841684412	0	0	0	30.02298371419641	-9.364138023173226	-8.583271648857256	34.20019938853236	0.5969060841684412	0	0	0	-1.086855353899177	4.132280426044224	7.733170866581787	7.962843298651164	-12.93509802574291	-7.004100586120381	-7.880634484637004	109.5135435863351	0	0	124.5628394217239	-15.68143147612144	26.60606147098425	65.87372576129644	35.11770548230744	0	0
8.779999999999902	-1.359044065246508	3.690242182250947	9.42213784170541	0	0.9399999999999999	0	30.02698480762668	-9.364707893954582	-8.584086622564991	34.20417772594694	0.5969755192550809	0	0	0	30.02698480762668	-9.364707893954582	-8.584086622564991	34.20417772594694	0.5969755192550809	0	0	0	-1.08600022876231	4.137877744404593	7.705510760074684	8.003491764531988	-12.9152558940639	-6.989628526610494	-7.874061629648653	109.471005445292	0	0	124.5222790797232	-15.84723149075372	26.80485086725668	65.89729991781269	35.16489371031013	0	0
